<?xml version="1.0" encoding="UTF-8"?>
<svg xmlns="http://www.w3.org/2000/svg" viewBox="0 0 528 744" width="528" height="744">
<rect x="0" y="0" width="528" height="744" fill="#ffffff"/>
<path d="M 238.00,503.14 L 226.00,501.60 L 220.62,494.00 L 222.00,484.00 L 222.00,264.00 L 220.00,258.25 L 215.00,256.00 L 209.83,258.00 L 207.75,264.00 L 208.56,496.00 L 203.50,502.00 L 195.00,503.36 L 186.17,499.00 L 183.83,493.00 L 185.43,483.00 L 185.29,263.00 L 183.00,258.25 L 178.00,256.86 L 174.00,259.00 L 172.57,264.00 L 172.43,483.00 L 174.00,493.00 L 171.71,499.00 L 164.00,503.20 L 154.20,502.00 L 149.78,497.00 L 149.50,250.00 L 150.75,244.00 L 158.00,234.14 L 166.00,231.11 L 361.00,231.11 L 367.00,232.57 L 376.14,242.00 L 378.62,250.00 L 378.12,331.00 L 376.67,339.00 L 373.62,344.00 L 362.00,348.27 L 260.00,348.07 L 251.00,349.89 L 246.50,354.00 L 246.60,494.00 L 244.12,500.00 L 238.00,503.14 Z M 255.00,322.00 L 258.00,318.33 L 259.00,313.00 L 258.43,264.00 L 256.00,258.00 L 252.00,256.86 L 248.50,258.00 L 245.71,263.00 L 245.00,314.00 L 248.00,321.00 L 251.00,322.80 L 255.00,322.00 Z M 321.00,322.00 L 324.10,314.00 L 323.67,263.00 L 321.80,258.00 L 318.00,256.57 L 313.78,262.00 L 313.22,314.00 L 316.00,321.80 L 321.00,322.00 Z M 287.00,322.00 L 291.00,319.00 L 292.38,314.00 L 292.00,264.00 L 291.00,260.00 L 286.00,257.33 L 282.25,259.00 L 280.57,263.00 L 280.00,313.00 L 282.00,320.25 L 287.00,322.00 Z M 354.67,320.00 L 357.00,314.00 L 356.57,264.00 L 355.00,259.33 L 352.00,258.25 L 349.33,264.00 L 348.89,314.00 L 351.00,319.75 L 354.67,320.00 Z" fill="#000000" fill-rule="evenodd"/>
</svg>
